name analog
datacolumns 19
datarows 66
range 0.327 0.3595
endheader
time	ground_force_vx	ground_force_vy	ground_force_vz	ground_force_px	ground_force_py	ground_force_pz	l_ground_force_vx	l_ground_force_vy	l_ground_force_vz	l_ground_force_px	l_ground_force_py	l_ground_force_pz	ground_torque_x	ground_torque_y	ground_torque_z	l_ground_torque_x	l_ground_torque_y	l_ground_torque_z
0.327	-0.0	-0.0	-0.0	-5.872182846069336	-0.8400430679321289	-806.6099243164062	-0.0	-0.0	-0.0	-34.699249267578125	15.859067916870115	75.85916137695312	-0.0	-0.0	-0.0	-0.0	-0.0	-0.0
0.3275	-0.0	-0.0	-0.0	-6.766520023345947	-0.826538622379303	-804.69384765625	-0.0	-0.0	-0.0	-35.08469772338867	16.21883201599121	75.4547119140625	-0.0	-0.0	-0.0	-0.0	-0.0	-0.0
0.328	-0.0	-0.0	-0.0	-7.607231616973877	0.0269983559846878	-801.25830078125	-0.0	-0.0	-0.0	-34.7236328125	16.14603614807129	75.36012268066406	-0.0	-0.0	-0.0	-0.0	-0.0	-0.0
0.3285	-0.0	-0.0	-0.0	-6.615164279937744	0.002945452928543	-801.8681640625	-0.0	-0.0	-0.0	-34.70988464355469	16.01459503173828	77.07540130615234	-0.0	-0.0	-0.0	-0.0	-0.0	-0.0
0.329	-0.0	-0.0	-0.0	-6.131412982940674	1.0286154747009275	-801.0535278320312	-0.0	-0.0	-0.0	-34.799346923828125	15.820679664611816	75.50923156738281	-0.0	-0.0	-0.0	-0.0	-0.0	-0.0
0.3295	-0.0	-0.0	-0.0	-5.8397321701049805	2.046716928482056	-804.2449340820312	-0.0	-0.0	-0.0	-34.747657775878906	15.858644485473633	75.60289001464844	-0.0	-0.0	-0.0	-0.0	-0.0	-0.0
0.33	-0.0	-0.0	-0.0	-4.728157043457031	2.862372875213623	-806.6629638671875	-0.0	-0.0	-0.0	-34.88880157470703	16.1663875579834	75.75077056884766	-0.0	-0.0	-0.0	-0.0	-0.0	-0.0
0.3305	-0.0	-0.0	-0.0	-2.3333070278167725	2.471817970275879	-811.6471557617188	-0.0	-0.0	-0.0	-35.030025482177734	16.208683013916016	75.58489227294922	-0.0	-0.0	-0.0	-0.0	-0.0	-0.0
0.331	-0.0	-0.0	-0.0	-0.0277837365865707	2.5709023475646973	-812.8161010742188	-0.0	-0.0	-0.0	-34.99238586425781	15.938833236694336	75.62097930908203	-0.0	-0.0	-0.0	-0.0	-0.0	-0.0
0.3315	-0.0	-0.0	-0.0	2.7752721309661865	2.0736677646636963	-815.8070678710938	-0.0	-0.0	-0.0	-34.85116195678711	15.910365104675291	74.6607666015625	-0.0	-0.0	-0.0	-0.0	-0.0	-0.0
0.332	-0.0	-0.0	-0.0	5.780202865600586	1.594797968864441	-816.1433715820312	-0.0	-0.0	-0.0	-34.92640686035156	16.081083297729492	75.95317840576172	-0.0	-0.0	-0.0	-0.0	-0.0	-0.0
0.3325	-0.0	-0.0	-0.0	7.770683765411377	1.2009403705596924	-814.8790283203125	-0.0	-0.0	-0.0	-35.18584060668945	16.009138107299805	76.30398559570312	-0.0	-0.0	-0.0	-0.0	-0.0	-0.0
0.333	-0.0	-0.0	-0.0	8.662689208984375	0.788051962852478	-816.5153198242188	-0.0	-0.0	-0.0	-34.865631103515625	16.270051956176758	76.2129898071289	-0.0	-0.0	-0.0	-0.0	-0.0	-0.0
0.3335	-0.0	-0.0	-0.0	10.04328727722168	1.0786375999450684	-813.4296875	-0.0	-0.0	-0.0	-35.09661102294922	16.269975662231445	75.86233520507812	-0.0	-0.0	-0.0	-0.0	-0.0	-0.0
0.334	-0.0	-0.0	-0.0	10.334134101867676	2.593666315078736	-808.6763916015625	-0.0	-0.0	-0.0	-34.77030563354492	16.037673950195312	75.1368179321289	-0.0	-0.0	-0.0	-0.0	-0.0	-0.0
0.3345	-0.0	-0.0	-0.0	10.466263771057127	4.203433036804199	-801.8884887695312	-0.0	-0.0	-0.0	-35.00736999511719	16.09617042541504	76.88287353515625	-0.0	-0.0	-0.0	-0.0	-0.0	-0.0
0.335	-0.0	-0.0	-0.0	9.709553718566896	6.693397045135498	-796.77392578125	-0.0	-0.0	-0.0	-34.88880157470703	16.38267707824707	76.18861389160156	-0.0	-0.0	-0.0	-0.0	-0.0	-0.0
0.3355	-0.0	-0.0	-0.0	7.968670845031738	8.08195686340332	-791.5908203125	-0.0	-0.0	-0.0	-35.09039306640625	16.209321975708008	76.0099868774414	-0.0	-0.0	-0.0	-0.0	-0.0	-0.0
0.336	-0.0	-0.0	-0.0	5.338131427764893	9.775371551513672	-785.9645385742188	-0.0	-0.0	-0.0	-34.81407928466797	16.081809997558594	75.60128021240234	-0.0	-0.0	-0.0	-0.0	-0.0	-0.0
0.3365	-0.0	-0.0	-0.0	2.437832832336426	11.126738548278809	-783.0322875976562	-0.0	-0.0	-0.0	-34.78453063964844	16.044979095458984	75.3966064453125	-0.0	-0.0	-0.0	-0.0	-0.0	-0.0
0.337	-0.0	-0.0	-0.0	-0.9679768085479736	11.943473815917969	-779.3521118164062	-0.0	-0.0	-0.0	-35.090118408203125	16.02956771850586	76.18608093261719	-0.0	-0.0	-0.0	-0.0	-0.0	-0.0
0.3375	-0.0	-0.0	-0.0	-3.6282944679260254	12.77615737915039	-776.3475952148438	-0.0	-0.0	-0.0	-35.03790664672852	16.067075729370117	76.0103759765625	-0.0	-0.0	-0.0	-0.0	-0.0	-0.0
0.338	-0.0	-0.0	-0.0	-5.724216461181641	12.923908233642578	-774.640380859375	-0.0	-0.0	-0.0	-34.881526947021484	16.352088928222656	76.36148071289062	-0.0	-0.0	-0.0	-0.0	-0.0	-0.0
0.3385	-0.0	-0.0	-0.0	-6.609135627746582	12.46345043182373	-773.6700439453125	-0.0	-0.0	-0.0	-34.80643081665039	16.037752151489258	74.34278869628906	-0.0	-0.0	-0.0	-0.0	-0.0	-0.0
0.339	-0.0	-0.0	-0.0	-7.404472351074219	12.032604217529297	-772.6399536132812	-0.0	-0.0	-0.0	-34.91903305053711	16.179330825805664	76.53478240966797	-0.0	-0.0	-0.0	-0.0	-0.0	-0.0
0.3395	-0.0	-0.0	-0.0	-6.832069873809815	11.579683303833008	-774.2007446289062	-0.0	-0.0	-0.0	-34.76900863647461	15.909368515014648	76.03759002685547	-0.0	-0.0	-0.0	-0.0	-0.0	-0.0
0.34	-0.0	-0.0	-0.0	-5.426833629608154	10.577363014221191	-776.2020263671875	-0.0	-0.0	-0.0	-34.74699401855469	16.216520309448242	75.71990203857422	-0.0	-0.0	-0.0	-0.0	-0.0	-0.0
0.3405	-0.0	-0.0	-0.0	-4.4906907081604	9.98260498046875	-776.1700439453125	-0.0	-0.0	-0.0	-34.88237762451172	15.812784194946287	75.60013580322266	-0.0	-0.0	-0.0	-0.0	-0.0	-0.0
0.341	-0.0	-0.0	-0.0	-2.683117389678955	9.47803783416748	-777.1425170898438	-0.0	-0.0	-0.0	-34.64211654663086	16.306316375732422	75.98644256591797	-0.0	-0.0	-0.0	-0.0	-0.0	-0.0
0.3415	-0.0	-0.0	-0.0	-1.592561960220337	8.80872631072998	-777.3489990234375	-0.0	-0.0	-0.0	-34.91038131713867	16.045642852783203	75.4547119140625	-0.0	-0.0	-0.0	-0.0	-0.0	-0.0
0.342	-0.0	-0.0	-0.0	-0.8310169577598572	8.504323959350586	-778.17626953125	-0.0	-0.0	-0.0	-34.90431594848633	16.210134506225586	75.30966186523438	-0.0	-0.0	-0.0	-0.0	-0.0	-0.0
0.3425	-0.0	-0.0	-0.0	-1.0921549797058103	8.913040161132812	-780.05322265625	-0.0	-0.0	-0.0	-34.799346923828125	16.120210647583008	75.59967041015625	-0.0	-0.0	-0.0	-0.0	-0.0	-0.0
0.343	-0.0	-0.0	-0.0	-2.5348031520843506	9.082038879394531	-779.2611083984375	-0.0	-0.0	-0.0	-35.05208969116211	16.13600730895996	75.95047760009766	-0.0	-0.0	-0.0	-0.0	-0.0	-0.0
0.3435	-0.0	-0.0	-0.0	-3.380465507507324	9.410984992980955	-780.650146484375	-0.0	-0.0	-0.0	-34.92567825317383	16.083276748657227	76.71385955810547	-0.0	-0.0	-0.0	-0.0	-0.0	-0.0
0.34400000000000003	-0.0	-0.0	-0.0	-4.377192497253418	8.839386940002441	-781.52587890625	-0.0	-0.0	-0.0	-35.15718078613281	16.284503936767578	77.18827819824219	-0.0	-0.0	-0.0	-0.0	-0.0	-0.0
0.34450000000000003	-0.0	-0.0	-0.0	-4.949089050292969	8.614543914794922	-780.6117553710938	-0.0	-0.0	-0.0	-34.82036590576172	15.866449356079102	76.36309814453125	-0.0	-0.0	-0.0	-0.0	-0.0	-0.0
0.34500000000000003	-0.0	-0.0	-0.0	-5.457483291625977	8.399380683898926	-781.4415283203125	-0.0	-0.0	-0.0	-35.173057556152344	16.22648048400879	75.49413299560547	-0.0	-0.0	-0.0	-0.0	-0.0	-0.0
0.34550000000000003	-0.0	-0.0	-0.0	-4.418324947357178	8.645648956298828	-780.5277099609375	-0.0	-0.0	-0.0	-35.141265869140625	16.33749008178711	75.6613998413086	-0.0	-0.0	-0.0	-0.0	-0.0	-0.0
0.34600000000000003	-0.0	-0.0	-0.0	-3.5264461040496826	8.205233573913574	-780.5277099609375	-0.0	-0.0	-0.0	-34.97826385498047	16.17366600036621	75.66154479980469	-0.0	-0.0	-0.0	-0.0	-0.0	-0.0
0.34650000000000003	-0.0	-0.0	-0.0	-1.8892414569854736	8.419968605041504	-779.114990234375	-0.0	-0.0	-0.0	-35.13653945922852	16.194534301757812	76.01264190673828	-0.0	-0.0	-0.0	-0.0	-0.0	-0.0
0.34700000000000003	-0.0	-0.0	-0.0	-0.5144748687744141	7.932605743408203	-782.0661010742188	-0.0	-0.0	-0.0	-34.60430908203125	16.194534301757812	76.2198486328125	-0.0	-0.0	-0.0	-0.0	-0.0	-0.0
0.34750000000000003	-0.0	-0.0	-0.0	1.9467037916183472	7.523562431335449	-785.5352172851562	-0.0	-0.0	-0.0	-34.81120300292969	16.15768051147461	75.72533416748047	-0.0	-0.0	-0.0	-0.0	-0.0	-0.0
0.34800000000000003	-0.0	-0.0	-0.0	3.918456077575684	6.307675838470459	-787.4463500976562	-0.0	-0.0	-0.0	-34.90092849731445	16.386667251586914	75.4547119140625	-0.0	-0.0	-0.0	-0.0	-0.0	-0.0
0.34850000000000003	-0.0	-0.0	-0.0	5.105486869812012	5.217754364013672	-788.8766479492188	-0.0	-0.0	-0.0	-34.94562530517578	16.034961700439453	76.01315307617188	-0.0	-0.0	-0.0	-0.0	-0.0	-0.0
0.34900000000000003	-0.0	-0.0	-0.0	6.228619575500488	4.20954179763794	-788.9868774414062	-0.0	-0.0	-0.0	-34.83589553833008	16.227436065673828	75.23210144042969	-0.0	-0.0	-0.0	-0.0	-0.0	-0.0
0.34950000000000003	-0.0	-0.0	-0.0	5.762173652648926	4.027044773101807	-791.4925537109375	-0.0	-0.0	-0.0	-34.86872482299805	16.157812118530273	76.92298889160156	-0.0	-0.0	-0.0	-0.0	-0.0	-0.0
0.35000000000000003	-0.0	-0.0	-0.0	4.85383939743042	3.865111351013184	-791.2030639648438	-0.0	-0.0	-0.0	-34.97480392456055	16.104564666748047	74.62327575683594	-0.0	-0.0	-0.0	-0.0	-0.0	-0.0
0.35050000000000003	-0.0	-0.0	-0.0	4.6024932861328125	3.548926830291748	-795.008056640625	-0.0	-0.0	-0.0	-34.829071044921875	16.317785263061523	75.59773254394531	-0.0	-0.0	-0.0	-0.0	-0.0	-0.0
0.35100000000000003	-0.0	-0.0	-0.0	3.548384189605713	2.693930149078369	-797.963134765625	-0.0	-0.0	-0.0	-34.6600227355957	16.537696838378906	75.67524719238281	-0.0	-0.0	-0.0	-0.0	-0.0	-0.0
0.35150000000000003	-0.0	-0.0	-0.0	3.677554130554199	2.6540067195892334	-796.406982421875	-0.0	-0.0	-0.0	-35.03133773803711	16.15494155883789	75.72844696044922	-0.0	-0.0	-0.0	-0.0	-0.0	-0.0
0.352	-0.0	-0.0	-0.0	3.8030731678009033	2.10280179977417	-793.9619140625	-0.0	-0.0	-0.0	-34.77681350708008	16.17770767211914	76.78150177001953	-0.0	-0.0	-0.0	-0.0	-0.0	-0.0
0.3525	-0.0	-0.0	-0.0	3.994714736938477	2.3008406162261963	-791.266845703125	-0.0	-0.0	-0.0	-34.70988464355469	16.247970581054688	76.57350158691406	-0.0	-0.0	-0.0	-0.0	-0.0	-0.0
0.353	-0.0	-0.0	-0.0	3.8330469131469727	3.492710828781128	-786.4539184570312	-0.0	-0.0	-0.0	-35.0846061706543	16.21151351928711	76.44133758544922	-0.0	-0.0	-0.0	-0.0	-0.0	-0.0
0.3535	-0.0	-0.0	-0.0	3.1860716342926025	3.5319201946258545	-782.2818603515625	-0.0	-0.0	-0.0	-34.88880157470703	16.352514266967773	75.103759765625	-0.0	-0.0	-0.0	-0.0	-0.0	-0.0
0.354	-0.0	-0.0	-0.0	1.9458929300308228	4.242055892944336	-777.1392822265625	-0.0	-0.0	-0.0	-34.96127700805664	16.160377502441406	75.03713989257812	-0.0	-0.0	-0.0	-0.0	-0.0	-0.0
0.3545	-0.0	-0.0	-0.0	2.587104797363281	4.815610408782959	-774.9331665039062	-0.0	-0.0	-0.0	-34.82057189941406	16.016693115234375	75.67182922363281	-0.0	-0.0	-0.0	-0.0	-0.0	-0.0
0.355	-0.0	-0.0	-0.0	3.214001178741455	5.383960247039795	-772.0513916015625	-0.0	-0.0	-0.0	-34.72700500488281	16.123727798461914	76.58232116699219	-0.0	-0.0	-0.0	-0.0	-0.0	-0.0
0.3555	-0.0	-0.0	-0.0	4.942720890045166	5.133452892303467	-771.201904296875	-0.0	-0.0	-0.0	-34.711692810058594	16.12364959716797	74.96195983886719	-0.0	-0.0	-0.0	-0.0	-0.0	-0.0
0.356	-0.0	-0.0	-0.0	6.299945831298828	5.15047550201416	-769.0156860351562	-0.0	-0.0	-0.0	-35.029991149902344	16.085594177246094	76.77816772460938	-0.0	-0.0	-0.0	-0.0	-0.0	-0.0
0.3565	-0.0	-0.0	-0.0	7.674020290374756	4.118973255157471	-768.21875	-0.0	-0.0	-0.0	-34.92487335205078	15.99717617034912	76.22456359863281	-0.0	-0.0	-0.0	-0.0	-0.0	-0.0
0.357	-0.0	-0.0	-0.0	7.884738922119141	3.134819507598877	-766.4005126953125	-0.0	-0.0	-0.0	-34.836753845214844	16.104564666748047	76.99996185302734	-0.0	-0.0	-0.0	-0.0	-0.0	-0.0
0.3575	-0.0	-0.0	-0.0	6.601577758789063	2.8881545066833496	-763.6495361328125	-0.0	-0.0	-0.0	-34.7447395324707	16.446916580200195	76.71722412109375	-0.0	-0.0	-0.0	-0.0	-0.0	-0.0
0.358	-0.0	-0.0	-0.0	5.210186004638672	3.154048442840576	-761.2393798828125	-0.0	-0.0	-0.0	-34.8878288269043	16.123146057128906	74.615478515625	-0.0	-0.0	-0.0	-0.0	-0.0	-0.0
0.3585	-0.0	-0.0	-0.0	4.8906426429748535	3.959022521972656	-757.3547973632812	-0.0	-0.0	-0.0	-35.17472076416016	16.248340606689453	75.59920501708984	-0.0	-0.0	-0.0	-0.0	-0.0	-0.0
0.359	-0.0	-0.0	-0.0	4.963389873504639	4.652138233184815	-756.8646240234375	-0.0	-0.0	-0.0	-34.656349182128906	16.087535858154297	75.0346450805664	-0.0	-0.0	-0.0	-0.0	-0.0	-0.0
0.3595	-0.0	-0.0	-0.0	6.227287769317627	5.186995506286621	-756.9376220703125	-0.0	-0.0	-0.0	-34.92418670654297	16.050682067871094	76.92793273925781	-0.0	-0.0	-0.0	-0.0	-0.0	-0.0
